ffmpeg started on 2016-12-06 at 06:09:43
Report written to "Output/x264/results/ffmpeg/crowd_run_2160p50fast5000k.log"
Command line:
Tools/ffmpeg/ffmpeg -benchmark -y -i Input/y4m/crowd_run_2160p50.y4m -c:v libx264 -preset fast -b:v 5000k -an Output/x264/encoded/crowd_run_2160p50fast5000k.mkv
ffmpeg version N-82227-gdb23fde Copyright (c) 2000-2016 the FFmpeg developers
  built with gcc 5.4.0 (Ubuntu 5.4.0-6ubuntu1~16.04.2) 20160609
  configuration: --prefix=/home/jaroslav/ffmpeg_build --pkg-config-flags=--static --extra-cflags=-I/home/jaroslav/ffmpeg_build/include --extra-ldflags=-L/home/jaroslav/ffmpeg_build/lib --bindir=/home/jaroslav/bin --enable-gpl --enable-libass --enable-libfdk-aac --enable-libfreetype --enable-libmp3lame --enable-libopus --enable-libtheora --enable-libvorbis --enable-libvpx --enable-libx264 --enable-libx265 --enable-nvenc --enable-libmfx --enable-libxvid --enable-libgsm --enable-libopencore-amrnb --enable-version3 --enable-nonfree
  libavutil      55. 35.100 / 55. 35.100
  libavcodec     57. 66.101 / 57. 66.101
  libavformat    57. 57.100 / 57. 57.100
  libavdevice    57.  2.100 / 57.  2.100
  libavfilter     6. 66.100 /  6. 66.100
  libswscale      4.  3.100 /  4.  3.100
  libswresample   2.  4.100 /  2.  4.100
  libpostproc    54.  2.100 / 54.  2.100
Input #0, yuv4mpegpipe, from 'Input/y4m/crowd_run_2160p50.y4m':
  Duration: 00:00:10.00, start: 0.000000, bitrate: 4976642 kb/s
    Stream #0:0: Video: rawvideo (I420 / 0x30323449), yuv420p(progressive), 3840x2160, SAR 1:1 DAR 16:9, 50 fps, 50 tbr, 50 tbn, 50 tbc
[libx264 @ 0x412f1c0] using SAR=1/1
[libx264 @ 0x412f1c0] using cpu capabilities: MMX2 SSE2Fast SSSE3 SSE4.2 AVX FMA3 AVX2 LZCNT BMI2
[libx264 @ 0x412f1c0] profile High, level 5.2
[libx264 @ 0x412f1c0] 264 - core 148 - H.264/MPEG-4 AVC codec - Copyleft 2003-2016 - http://www.videolan.org/x264.html - options: cabac=1 ref=2 deblock=1:0:0 analyse=0x3:0x113 me=hex subme=6 psy=1 psy_rd=1.00:0.00 mixed_ref=1 me_range=16 chroma_me=1 trellis=1 8x8dct=1 cqm=0 deadzone=21,11 fast_pskip=1 chroma_qp_offset=-2 threads=6 lookahead_threads=1 sliced_threads=0 nr=0 decimate=1 interlaced=0 bluray_compat=0 constrained_intra=0 bframes=3 b_pyramid=2 b_adapt=1 b_bias=0 direct=1 weightb=1 open_gop=0 weightp=1 keyint=250 keyint_min=25 scenecut=40 intra_refresh=0 rc_lookahead=30 rc=abr mbtree=1 bitrate=5000 ratetol=1.0 qcomp=0.60 qpmin=0 qpmax=69 qpstep=4 ip_ratio=1.40 aq=1:1.00
Output #0, matroska, to 'Output/x264/encoded/crowd_run_2160p50fast5000k.mkv':
  Metadata:
    encoder         : Lavf57.57.100
    Stream #0:0: Video: h264 (libx264) (H264 / 0x34363248), yuv420p, 3840x2160 [SAR 1:1 DAR 16:9], q=-1--1, 5000 kb/s, 50 fps, 1k tbn, 50 tbc
    Metadata:
      encoder         : Lavc57.66.101 libx264
    Side data:
      cpb: bitrate max/min/avg: 0/0/5000000 buffer size: 0 vbv_delay: -1
Stream mapping:
  Stream #0:0 -> #0:0 (rawvideo (native) -> h264 (libx264))
Press [q] to stop, [?] for help
frame=    8 fps=0.0 q=0.0 size=       0kB time=00:00:00.00 bitrate=N/A speed=   0x    frame=   25 fps= 25 q=0.0 size=       0kB time=00:00:00.00 bitrate=N/A speed=   0x    frame=   37 fps= 13 q=0.0 size=       0kB time=00:00:00.00 bitrate=N/A speed=   0x    frame=   43 fps= 12 q=40.0 size=       1kB time=00:00:00.00 bitrate=5872.0kbits/s speed=0.00028x    frame=   49 fps= 12 q=57.0 size=       1kB time=00:00:00.12 bitrate=  48.5kbits/s speed=0.0293x    frame=   56 fps= 12 q=56.0 size=       1kB time=00:00:00.26 bitrate=  22.5kbits/s speed=0.0554x    frame=   65 fps= 12 q=57.0 size=       1kB time=00:00:00.44 bitrate=  13.3kbits/s speed=0.0842x    frame=   72 fps= 13 q=57.0 size=       1kB time=00:00:00.58 bitrate=  10.1kbits/s speed=0.101x    frame=   81 fps= 13 q=57.0 size=       1kB time=00:00:00.76 bitrate=   7.7kbits/s speed=0.122x    frame=   90 fps= 13 q=57.0 size=       1kB time=00:00:00.94 bitrate=   6.2kbits/s speed=0.138x    frame=   97 fps= 13 q=57.0 size=       1kB time=00:00:01.08 bitrate=   5.4kbits/s speed=0.148x    frame=  106 fps= 14 q=57.0 size=       1kB time=00:00:01.26 bitrate=   4.7kbits/s speed=0.161x    frame=  115 fps= 14 q=57.0 size=       1kB time=00:00:01.44 bitrate=   4.1kbits/s speed=0.17x    frame=  125 fps= 14 q=57.0 size=       1kB time=00:00:01.64 bitrate=   3.6kbits/s speed=0.181x    frame=  134 fps= 14 q=56.0 size=       1kB time=00:00:01.82 bitrate=   3.2kbits/s speed=0.19x    frame=  143 fps= 14 q=56.0 size=       1kB time=00:00:02.00 bitrate=   2.9kbits/s speed=0.198x    frame=  152 fps= 14 q=56.0 size=       1kB time=00:00:02.18 bitrate=   2.7kbits/s speed=0.204x    frame=  161 fps= 14 q=56.0 size=       1kB time=00:00:02.36 bitrate=   2.5kbits/s speed=0.21x    frame=  170 fps= 14 q=56.0 size=       1kB time=00:00:02.54 bitrate=   2.3kbits/s speed=0.21x    frame=  179 fps= 14 q=56.0 size=       1kB time=00:00:02.72 bitrate=   2.2kbits/s speed=0.216x    frame=  187 fps= 14 q=56.0 size=       1kB time=00:00:02.88 bitrate=   2.0kbits/s speed=0.22x    frame=  196 fps= 14 q=56.0 size=       1kB time=00:00:03.06 bitrate=   1.9kbits/s speed=0.225x    frame=  204 fps= 14 q=56.0 size=       1kB time=00:00:03.22 bitrate=   1.8kbits/s speed=0.227x    frame=  214 fps= 14 q=56.0 size=       1kB time=00:00:03.42 bitrate=   1.7kbits/s speed=0.231x    frame=  223 fps= 15 q=55.0 size=       1kB time=00:00:03.60 bitrate=   1.6kbits/s speed=0.235x    frame=  232 fps= 15 q=55.0 size=       1kB time=00:00:03.78 bitrate=   1.6kbits/s speed=0.237x    frame=  241 fps= 15 q=55.0 size=       1kB time=00:00:03.96 bitrate=   1.5kbits/s speed=0.24x    frame=  249 fps= 15 q=55.0 size=       1kB time=00:00:04.12 bitrate=   1.4kbits/s speed=0.242x    frame=  257 fps= 15 q=55.0 size=       1kB time=00:00:04.28 bitrate=   1.4kbits/s speed=0.244x    frame=  266 fps= 15 q=55.0 size=       1kB time=00:00:04.46 bitrate=   1.3kbits/s speed=0.247x    frame=  273 fps= 15 q=55.0 size=       1kB time=00:00:04.60 bitrate=   1.3kbits/s speed=0.248x    frame=  282 fps= 15 q=55.0 size=       1kB time=00:00:04.78 bitrate=   1.2kbits/s speed=0.25x    frame=  286 fps= 14 q=52.0 size=       1kB time=00:00:04.86 bitrate=   1.2kbits/s speed=0.241x    frame=  292 fps= 14 q=55.0 size=    3211kB time=00:00:04.98 bitrate=5280.8kbits/s speed=0.241x    frame=  301 fps= 14 q=55.0 size=    3211kB time=00:00:05.16 bitrate=5096.6kbits/s speed=0.243x    frame=  309 fps= 14 q=55.0 size=    3211kB time=00:00:05.32 bitrate=4943.3kbits/s speed=0.244x    frame=  318 fps= 14 q=55.0 size=    3211kB time=00:00:05.50 bitrate=4781.6kbits/s speed=0.246x    frame=  327 fps= 14 q=55.0 size=    3211kB time=00:00:05.68 bitrate=4630.1kbits/s speed=0.248x    frame=  334 fps= 14 q=55.0 size=    3211kB time=00:00:05.82 bitrate=4518.7kbits/s speed=0.248x    frame=  342 fps= 14 q=55.0 size=    3211kB time=00:00:05.98 bitrate=4397.9kbits/s speed=0.249x    frame=  351 fps= 14 q=56.0 size=    3211kB time=00:00:06.16 bitrate=4269.4kbits/s speed=0.251x    frame=  358 fps= 14 q=56.0 size=    3211kB time=00:00:06.30 bitrate=4174.5kbits/s speed=0.252x    frame=  366 fps= 14 q=56.0 size=    3211kB time=00:00:06.46 bitrate=4071.1kbits/s speed=0.252x    frame=  369 fps= 14 q=56.0 size=    3211kB time=00:00:06.52 bitrate=4033.7kbits/s speed=0.249x    frame=  378 fps= 14 q=56.0 size=    3211kB time=00:00:06.70 bitrate=3925.3kbits/s speed=0.251x    frame=  386 fps= 14 q=56.0 size=    3211kB time=00:00:06.86 bitrate=3833.8kbits/s speed=0.252x    frame=  396 fps= 14 q=56.0 size=    3211kB time=00:00:07.06 bitrate=3725.2kbits/s speed=0.254x    frame=  404 fps= 14 q=56.0 size=    3211kB time=00:00:07.22 bitrate=3642.6kbits/s speed=0.255x    frame=  412 fps= 14 q=56.0 size=    3211kB time=00:00:07.38 bitrate=3563.7kbits/s speed=0.256x    frame=  420 fps= 14 q=56.0 size=    3211kB time=00:00:07.54 bitrate=3488.1kbits/s speed=0.256x    frame=  428 fps= 14 q=56.0 size=    3211kB time=00:00:07.70 bitrate=3415.6kbits/s speed=0.257x    frame=  435 fps= 14 q=56.0 size=    3211kB time=00:00:07.84 bitrate=3354.6kbits/s speed=0.257x    frame=  443 fps= 14 q=56.0 size=    3211kB time=00:00:08.00 bitrate=3287.5kbits/s speed=0.258x    frame=  450 fps= 14 q=56.0 size=    3211kB time=00:00:08.14 bitrate=3231.0kbits/s speed=0.258x    frame=  459 fps= 14 q=56.0 size=    3211kB time=00:00:08.32 bitrate=3161.1kbits/s speed=0.259x    frame=  466 fps= 14 q=56.0 size=    3211kB time=00:00:08.46 bitrate=3108.8kbits/s speed=0.258x    frame=  474 fps= 14 q=56.0 size=    3211kB time=00:00:08.62 bitrate=3051.1kbits/s speed=0.259x    frame=  482 fps= 14 q=56.0 size=    3211kB time=00:00:08.78 bitrate=2995.5kbits/s speed=0.26x    frame=  491 fps= 14 q=56.0 size=    3211kB time=00:00:08.96 bitrate=2935.3kbits/s speed=0.261x    frame=  498 fps= 14 q=56.0 size=    3211kB time=00:00:09.10 bitrate=2890.2kbits/s speed=0.261x    frame=  500 fps= 14 q=-1.0 Lsize=    6443kB time=00:00:09.94 bitrate=5309.7kbits/s speed=0.269x    
video:6439kB audio:0kB subtitle:0kB other streams:0kB global headers:0kB muxing overhead: 0.067582%
bench: utime=124.280s
bench: maxrss=1588992kB
[libx264 @ 0x412f1c0] frame I:2     Avg QP:42.92  size:156770
[libx264 @ 0x412f1c0] frame P:126   Avg QP:50.80  size: 19837
[libx264 @ 0x412f1c0] frame B:372   Avg QP:50.82  size: 10161
[libx264 @ 0x412f1c0] consecutive B-frames:  0.8%  0.0%  0.0% 99.2%
[libx264 @ 0x412f1c0] mb I  I16..4: 22.8% 70.5%  6.6%
[libx264 @ 0x412f1c0] mb P  I16..4:  6.3%  2.0%  0.0%  P16..4: 18.9%  1.8%  1.9%  0.0%  0.0%    skip:69.2%
[libx264 @ 0x412f1c0] mb B  I16..4:  0.4%  0.3%  0.0%  B16..8: 12.6%  0.4%  0.0%  direct: 5.9%  skip:80.4%  L0:45.8% L1:53.9% BI: 0.3%
[libx264 @ 0x412f1c0] final ratefactor: 47.73
[libx264 @ 0x412f1c0] 8x8 transform intra:33.0% inter:97.7%
[libx264 @ 0x412f1c0] coded y,uvDC,uvAC intra: 8.7% 43.7% 3.2% inter: 1.7% 5.6% 0.0%
[libx264 @ 0x412f1c0] i16 v,h,dc,p: 56% 24% 12%  8%
[libx264 @ 0x412f1c0] i8 v,h,dc,ddl,ddr,vr,hd,vl,hu: 17%  8% 49%  5%  4%  5%  5%  4%  3%
[libx264 @ 0x412f1c0] i4 v,h,dc,ddl,ddr,vr,hd,vl,hu: 23% 18% 12%  9%  9%  8%  8%  7%  6%
[libx264 @ 0x412f1c0] i8c dc,h,v,p: 94%  2%  3%  0%
[libx264 @ 0x412f1c0] Weighted P-Frames: Y:1.6% UV:0.0%
[libx264 @ 0x412f1c0] ref P L0: 59.0% 41.0%
[libx264 @ 0x412f1c0] ref B L0: 81.0% 19.0%
[libx264 @ 0x412f1c0] ref B L1: 94.7%  5.3%
[libx264 @ 0x412f1c0] kb/s:5274.24
